Coordinates
version=1
nRows=17
nColumns=24
inDegrees=yes

Units are S.I. units (second, meters, Newtons, ...)
Angles are in degrees.

endheader
time	pelvis_tilt	pelvis_list	pelvis_rotation	pelvis_tx	pelvis_ty	pelvis_tz	hip_flexion_r	hip_adduction_r	hip_rotation_r	knee_angle_r	ankle_angle_r	subtalar_angle_r	mtp_angle_r	hip_flexion_l	hip_adduction_l	hip_rotation_l	knee_angle_l	ankle_angle_l	subtalar_angle_l	mtp_angle_l	lumbar_extension	lumbar_bending	lumbar_rotation
      5.17000000	      8.06086324	      0.03704214	     -1.99126312	      0.24431925	      1.06805865	     -0.19566173	     -5.55137171	      5.72896045	     -3.66852540	     -7.44074958	      8.08130292	    -18.79206080	      0.00000000	      9.98664040	     -0.17495377	     -0.97536142	    -61.07468997	    -12.59924994	    -38.27786850	      0.00000000	    -21.96274007	     -1.38097498	      1.41864364
      5.18000000	      7.83277646	      0.07822578	     -2.43613101	      0.25357559	      1.06841651	     -0.19429835	     -5.88716123	      5.71406540	     -3.80726107	     -7.32104665	      8.26828006	    -18.62151853	      0.00000000	     11.15439240	      0.01758438	     -0.93246971	    -60.04489185	    -10.63908012	    -36.83155275	      0.00000000	    -21.84449036	     -1.57694651	      1.84378776
      5.19000000	      7.60019655	      0.10178165	     -2.92833338	      0.26276635	      1.06867661	     -0.19291871	     -6.15550428	      5.70851154	     -3.92073636	     -7.31384050	      8.47138617	    -18.45690760	      0.00000000	     12.23908560	      0.15937066	     -0.94258142	    -58.75406259	     -8.69402709	    -35.12040591	      0.00000000	    -21.72723746	     -1.76716403	      2.29036779
      5.20000000	      7.36977942	      0.12383181	     -3.46492065	      0.27189794	      1.06886509	     -0.19154725	     -6.37057868	      5.69092640	     -4.00782101	     -7.40570024	      8.66841551	    -18.27572141	      0.00000000	     13.22440284	      0.26789567	     -1.00541510	    -57.19488066	     -6.81538435	    -33.24464195	      0.00000000	    -21.62160568	     -1.95652679	      2.74472316
      5.21000000	      7.14565757	      0.14085856	     -4.03542875	      0.28097427	      1.06897430	     -0.19017600	     -6.53934406	      5.66743482	     -4.04408377	     -7.59701737	      8.93223146	    -18.13128676	      0.00000000	     14.10042283	      0.33880650	     -1.10900713	    -55.37172711	     -5.04448075	    -31.31583699	      0.00000000	    -21.53149519	     -2.14892864	      3.21217710
      5.22000000	      6.93143086	      0.15502215	     -4.62173042	      0.29003867	      1.06902742	     -0.18883112	     -6.69333239	      5.63359064	     -4.07013558	     -7.83622191	      9.18003647	    -17.95352290	      0.00000000	     14.85527263	      0.37898695	     -1.23730602	    -53.28627103	     -3.43240443	    -29.42967597	      0.00000000	    -21.45160563	     -2.33865269	      3.64919114
      5.23000000	      6.72581138	      0.15756015	     -5.20549764	      0.29909689	      1.06901793	     -0.18754509	     -6.84005583	      5.59879777	     -4.09142557	     -8.11152923	      9.43688097	    -17.74639032	      0.00000000	     15.48899330	      0.38857931	     -1.36296426	    -50.95432018	     -2.02274753	    -27.65264578	      0.00000000	    -21.38638159	     -2.50569241	      4.05138348
      5.24000000	      6.53153654	      0.13375185	     -5.76513609	      0.30817951	      1.06893412	     -0.18632939	     -7.00620830	      5.58091709	     -4.12585629	     -8.38386211	      9.71613040	    -17.51756183	      0.00000000	     16.00145168	      0.35506190	     -1.46797054	    -48.40062333	     -0.84210454	    -26.04508297	      0.00000000	    -21.33317374	     -2.63146053	      4.40520029
      5.25000000	      6.34420295	      0.07614038	     -6.28879649	      0.31733252	      1.06876613	     -0.18519871	     -7.21161017	      5.58867112	     -4.18413456	     -8.61400819	     10.00097977	    -17.25424944	      0.00000000	     16.39797629	      0.27580545	     -1.53987989	    -45.64887870	      0.09764034	    -24.63806890	      0.00000000	    -21.27863143	     -2.70273291	      4.70265223
      5.26000000	      6.16204017	     -0.02851565	     -6.76115710	      0.32653647	      1.06849937	     -0.18418163	     -7.44757749	      5.63488676	     -4.27541632	     -8.82278979	     10.27256744	    -16.93433330	      0.00000000	     16.68978275	      0.14817941	     -1.54482611	    -42.73093727	      0.79373357	    -23.43595080	      0.00000000	    -21.23794969	     -2.69982306	      4.93222855
      5.27000000	      5.98516309	     -0.18097712	     -7.18403981	      0.33586429	      1.06812144	     -0.18324920	     -7.75100478	      5.72594543	     -4.35652762	     -8.94963170	     10.54903626	    -16.60043234	      0.00000000	     16.87814004	     -0.03597989	     -1.50698147	    -39.66877957	      1.24889828	    -22.43826837	      0.00000000	    -21.19107569	     -2.62465650	      5.10217523
      5.28000000	      5.80139784	     -0.38168777	     -7.55392077	      0.34532053	      1.06760043	     -0.18240334	     -8.10380275	      5.86274676	     -4.45068475	     -9.00578850	     10.82143688	    -16.26026753	      0.00000000	     16.98828130	     -0.27793278	     -1.43472843	    -36.49461864	      1.50873759	    -21.59921507	      0.00000000	    -21.12665282	     -2.47474240	      5.23875468
      5.29000000	      5.58623855	     -0.61859957	     -7.89267763	      0.35496493	      1.06690072	     -0.18158570	     -8.49838891	      6.03949016	     -4.49747859	     -8.96001261	     11.01644885	    -15.99974767	      0.00000000	     17.05097203	     -0.58563021	     -1.40732262	    -33.22486466	      1.55642674	    -20.93542258	      0.00000000	    -20.99457679	     -2.27917157	      5.37627583
      5.30000000	      5.38795818	     -0.92312155	     -8.14778971	      0.36474840	      1.06606994	     -0.18088481	     -8.94457220	      6.27687587	     -4.66565819	     -8.89882601	     11.30553428	    -15.47749308	      0.00000000	     17.04263083	     -0.96513815	     -1.39085267	    -29.91457221	      1.61708762	    -20.14501889	      0.00000000	    -20.88773275	     -1.98134224	      5.41147000
      5.31000000	      5.11684757	     -1.24992904	     -8.43842971	      0.37471679	      1.06499420	     -0.18013271	     -9.39070033	      6.55117176	     -4.55832732	     -8.73674084	     11.44379136	    -15.27153409	      0.00000000	     17.04470490	     -1.40813117	     -1.52297494	    -26.54647621	      1.45898229	    -19.56187618	      0.00000000	    -20.66359063	     -1.65900569	      5.54147649
      5.32000000	      4.90112434	     -1.58841368	     -8.68759313	      0.38487850	      1.06383286	     -0.17941537	     -9.92451881	      6.82262404	     -4.50773482	     -8.55859322	     11.64821703	    -14.92397508	      0.00000000	     16.95304826	     -1.87024138	     -1.83766260	    -23.17870642	      1.46780250	    -18.63875938	      0.00000000	    -20.48995949	     -1.32577066	      5.62240343
      5.33000000	      4.63071528	     -1.95012059	     -8.95512029	      0.39521931	      1.06245059	     -0.17867751	    -10.43702522	      7.11917463	     -4.36624966	     -8.35312987	     11.82001101	    -14.64146963	      0.00000000	     16.89296310	     -2.37226670	     -2.34611277	    -19.84671436	      1.46328561	    -17.62912624	      0.00000000	    -20.22903196	     -0.96672746	      5.77456227
